<svg width="132" height="13" viewBox="0 0 132 13" fill="none" xmlns="http://www.w3.org/2000/svg">
<path d="M103.4 10.164L95.491 9.48201L92.4 2.20001L89.309 9.49301L81.4 10.164L87.406 15.367L85.602 23.1L92.4 18.997L99.198 23.1L97.405 15.367L103.4 10.164ZM92.4 16.94V6.71001L94.281 11.154L99.099 11.572L95.447 14.74L96.547 19.448L92.4 16.94Z" fill="#FFBB3A"/>
<path d="M13.2 18.997L19.998 23.1L18.194 15.367L24.2 10.164L16.291 9.49301L13.2 2.20001L10.109 9.49301L2.19995 10.164L8.20595 15.367L6.40195 23.1L13.2 18.997Z" fill="#FFBB3A"/>
<path d="M39.6 18.997L46.398 23.1L44.594 15.367L50.6 10.164L42.691 9.49301L39.6 2.20001L36.509 9.49301L28.6 10.164L34.606 15.367L32.802 23.1L39.6 18.997Z" fill="#FFBB3A"/>
<path d="M66 18.997L72.798 23.1L70.994 15.367L77 10.164L69.091 9.49301L66 2.20001L62.909 9.49301L55 10.164L61.006 15.367L59.202 23.1L66 18.997Z" fill="#FFBB3A"/>
<path d="M129.8 10.164L121.891 9.48201L118.8 2.20001L115.709 9.49301L107.8 10.164L113.806 15.367L112.002 23.1L118.8 18.997L125.598 23.1L123.805 15.367L129.8 10.164ZM118.8 16.94L114.664 19.437L115.764 14.729L112.112 11.561L116.93 11.143L118.8 6.71001L120.681 11.154L125.499 11.572L121.847 14.74L122.947 19.448L118.8 16.94Z" fill="#FFBB3A"/>
</svg>
